PathFileType	4	(X/Y/Z)	markers
DataRate	CameraRate	NumFrames	NumMarkers	Units	OrigDataRate	OrigDataStartFrame	OrigNumFrames
200	200	5	39	mm	200	221	252
Frame#	Time	RASI			LASI			RPSI			LPSI			RTH1			RTH2			RTH3			RTH4			RLFC			RTB1			RTB2			RTB3			RTB4			RLMAL			RCAL			RTOE			RMT5			LTH1			LTH2			LTH3			LTH4			LLFC			LTB1			LTB2			LTB3			LTB4			LLMAL			LCAL			LTOE			LMT5			C7			T10			CLAV			RACR			LACR			RLEL			RFAradius			LLEL			LFAradius		
		X1	Y1	Z1	X2	Y2	Z2	X3	Y3	Z3	X4	Y4	Z4	X5	Y5	Z5	X6	Y6	Z6	X7	Y7	Z7	X8	Y8	Z8	X9	Y9	Z9	X10	Y10	Z10	X11	Y11	Z11	X12	Y12	Z12	X13	Y13	Z13	X14	Y14	Z14	X15	Y15	Z15	X16	Y16	Z16	X17	Y17	Z17	X18	Y18	Z18	X19	Y19	Z19	X20	Y20	Z20	X21	Y21	Z21	X22	Y22	Z22	X23	Y23	Z23	X24	Y24	Z24	X25	Y25	Z25	X26	Y26	Z26	X27	Y27	Z27	X28	Y28	Z28	X29	Y29	Z29	X30	Y30	Z30	X31	Y31	Z31	X32	Y32	Z32	X33	Y33	Z33	X34	Y34	Z34	X35	Y35	Z35	X36	Y36	Z36	X37	Y37	Z37	X38	Y38	Z38	X39	Y39	Z39
221	1.100000	3177.214436	1037.198191	763.007552	3194.698374	1017.137427	529.222170	3017.958330	1059.220516	688.132749	3025.100544	1056.944215	591.320568	3228.907799	796.521097	808.625201	3281.188854	819.660440	778.594842	3320.139688	725.786175	767.692953	3282.002419	704.553917	792.545511	3324.324212	583.803042	776.804193	3292.827746	455.928109	795.034747	3340.447451	457.340648	777.554807	3344.645318	352.625903	755.076130	3284.543666	354.921648	779.091713	3289.202533	148.207785	736.460384	3244.921611	105.284048	670.632905	3469.413926	133.986382	683.905121	3418.677247	112.203042	773.513315	3121.827805	744.525786	479.235172	3159.886789	742.473229	510.574529	3141.443690	644.126561	536.928432	3089.693898	642.076395	498.034168	3017.294851	529.772205	508.032655	2944.384120	453.674975	485.442272	2977.457568	423.865203	509.915680	2906.611437	352.966315	525.187298	2860.754022	390.713516	491.312833	2711.628608	231.542268	531.809405	2634.303143	264.794725	594.979859	2768.423206	85.790973	610.584332	2725.802403	104.747511	516.486656	3036.612414	1556.039507	621.723711	2977.340825	1349.374856	603.975882	3137.619879	1482.296924	672.974362	3032.101063	1529.716787	789.805304	3123.628205	1533.242221	471.930009	2814.176017	1289.056840	852.471054	2983.926826	1092.373326	866.046989	3147.231289	1198.920128	369.506965	3308.578417	1302.475769	528.667142
222	1.105000	3192.866122	1038.574062	763.877629	3210.810053	1018.586217	530.459015	3034.028205	1061.705309	688.752298	3041.433169	1059.632236	591.621130	3240.677524	796.090679	810.655022	3294.288022	817.916649	781.351020	3331.943577	723.777468	770.487742	3292.504642	703.705614	795.105766	3335.028575	581.933683	778.073324	3308.267157	454.031952	796.538190	3355.722906	457.118994	779.675286	3364.098537	352.369347	755.888607	3303.902852	352.246943	779.730702	3317.491501	147.116178	738.808930	3275.681764	101.720150	670.327462	3499.013903	140.568865	683.928568	3449.236082	115.776556	773.585730	3136.510059	746.036356	482.156775	3174.925391	743.581975	511.514647	3154.723286	646.170451	538.642658	3103.788982	644.463021	499.027870	3029.881735	533.281381	508.049083	2956.588233	457.532532	485.502889	2989.191902	427.362465	509.702039	2917.734334	357.055136	524.241933	2872.133143	395.473884	490.409482	2721.244443	236.157506	530.230313	2645.410306	272.692184	593.825573	2774.379358	88.637629	610.179633	2731.761722	109.700771	515.807751	3050.215366	1556.895633	622.899600	2991.815216	1351.924849	603.734440	3151.629347	1484.261072	674.261385	3045.395736	1531.032046	790.086729	3138.332702	1535.305848	473.372375	2826.554416	1291.538959	851.179700	2996.194562	1094.706220	867.102648	3163.858725	1201.819957	369.995151	3322.807679	1306.014652	531.216924
223	1.110000	3208.599543	1039.411462	764.792101	3226.612095	1019.900220	531.351019	3049.786610	1063.012786	688.678435	3057.407727	1061.531097	591.807976	3252.812765	795.568034	813.025854	3307.470539	816.381654	783.546522	3343.759855	721.157146	773.549136	3303.564420	701.182664	797.047506	3346.096873	579.662306	778.999984	3323.074682	452.365263	796.719656	3370.973438	456.872255	779.733459	3383.425204	352.566786	756.849607	3323.049499	350.532115	780.208427	3346.347663	144.347048	738.500076	3305.733215	97.659546	670.864090	3526.750228	147.123176	683.994411	3479.041970	119.600482	773.304739	3151.544319	747.372428	482.703278	3189.048077	745.092902	513.872922	3168.335817	647.560429	540.594248	3117.845529	646.080660	500.114209	3042.690361	535.686945	509.553817	2969.606164	460.405791	486.628909	3001.688124	429.628487	510.951721	2929.655486	359.204854	525.229462	2884.326083	399.249952	490.571533	2731.709409	241.413916	528.931232	2657.255084	279.806676	592.480871	2779.151459	90.973103	609.617191	2738.047420	113.332098	515.235133	3064.373006	1559.240989	624.385324	3006.805591	1352.597118	603.656336	3165.644011	1485.808422	675.443124	3058.604056	1532.166912	790.669661	3153.130331	1537.479736	474.881530	2838.726095	1293.794328	850.500425	3008.536352	1096.817936	868.319228	3180.098499	1204.383765	370.633191	3336.972026	1309.384459	533.740959
224	1.115000	3224.254811	1040.048510	765.798977	3242.048772	1020.965126	532.167887	3065.598060	1064.032557	688.796998	3073.593005	1063.287978	591.996050	3265.812693	793.395286	814.329892	3320.842865	813.253801	785.397059	3355.367423	717.780948	776.428214	3315.029027	699.082684	798.792813	3357.197118	577.533504	779.535610	3337.902976	450.009780	796.848227	3385.389584	456.384548	780.999003	3402.089932	352.792537	758.852470	3341.826045	348.719287	781.161096	3373.012733	143.314776	739.120028	3334.605809	95.486544	671.721892	3553.331042	153.563775	683.422485	3507.886492	123.047955	772.268563	3167.218006	748.452393	482.969292	3203.759164	746.254841	515.874769	3182.530378	649.288773	542.592780	3132.950313	647.547721	501.519701	3056.494325	538.904318	509.606797	2983.222865	462.815798	486.976707	3014.537856	431.975860	511.238849	2941.345482	363.243437	524.214095	2897.117793	402.562770	489.955364	2741.882307	245.921241	527.404385	2669.359615	287.846927	590.166531	2784.495275	94.339882	608.957905	2745.416376	118.633610	514.269253	3078.586530	1560.032471	624.569101	3021.809492	1352.732703	603.816379	3179.467640	1487.144069	676.826150	3072.114288	1532.605962	790.915841	3167.998153	1539.510645	476.238979	2851.286476	1295.495741	849.687594	3021.235395	1098.468195	869.424437	3196.141178	1206.901559	371.253315	3351.312637	1312.235593	535.814443
225	1.120000	3239.763741	1040.499417	766.714524	3257.451371	1021.926912	532.935624	3081.427173	1065.128463	689.292706	3089.226969	1064.539440	592.349857	3279.181887	791.833737	815.070450	3334.340643	810.556668	786.470609	3366.748452	714.744504	778.914251	3326.457431	696.244746	801.282871	3368.269135	574.796222	779.785686	3352.505953	447.758840	796.941927	3399.913453	455.922627	781.295163	3419.923799	352.766544	760.154766	3359.770149	347.387735	783.110843	3399.844029	142.792559	740.262472	3363.191235	92.832712	673.167307	3579.063220	160.428260	683.155194	3535.380181	127.355201	772.863539	3183.145219	749.249594	483.933302	3218.970499	747.090292	517.569437	3196.996420	649.743165	545.136721	3148.019443	648.238067	502.669205	3070.996509	539.397767	510.848104	2997.117192	465.337197	487.377511	3027.921479	433.813599	511.857547	2954.302111	364.559060	524.851018	2910.187128	405.986979	489.392199	2752.592707	250.142189	526.035121	2681.194421	294.671279	588.226225	2790.288278	98.818827	609.343559	2752.277407	122.822180	513.994588	3092.488415	1559.853407	625.571250	3037.170119	1353.353187	604.234291	3193.749760	1488.138630	678.299278	3085.297169	1533.147941	791.575289	3182.924366	1540.554563	477.916067	2863.713334	1296.802686	849.398870	3034.693360	1100.099406	870.740603	3211.934189	1208.580285	371.923152	3365.423404	1314.386258	537.905986
